<?xml version="1.0" encoding="UTF-8" standalone="no"?><svg xmlns="http://www.w3.org/2000/svg" xmlns:xlink="http://www.w3.org/1999/xlink" contentScriptType="application/ecmascript" contentStyleType="text/css" height="1876px" preserveAspectRatio="none" style="width:1252px;height:1876px;" version="1.1" viewBox="0 0 1252 1876" width="1252px" zoomAndPan="magnify"><defs><filter height="300%" id="fb7x5i5vlt415" width="300%" x="-1" y="-1"><feGaussianBlur result="blurOut" stdDeviation="2.0"/><feColorMatrix in="blurOut" result="blurOut2" type="matrix" values="0 0 0 0 0 0 0 0 0 0 0 0 0 0 0 0 0 0 .4 0"/><feOffset dx="4.0" dy="4.0" in="blurOut2" result="blurOut3"/><feBlend in="SourceGraphic" in2="blurOut3" mode="normal"/></filter></defs><g><text fill="#000000" font-family="sans-serif" font-size="14" font-weight="bold" lengthAdjust="spacingAndGlyphs" textLength="373" x="435" y="22.9951">Dynamic Partition Commander : Create Session</text><rect fill="#FFFFFF" filter="url(#fb7x5i5vlt415)" height="131.9297" style="stroke: #A80036; stroke-width: 1.0;" width="10" x="373" y="157.5938"/><rect fill="#FFFFFF" filter="url(#fb7x5i5vlt415)" height="335.4609" style="stroke: #A80036; stroke-width: 1.0;" width="10" x="587.5" y="361.7891"/><rect fill="#FFFFFF" filter="url(#fb7x5i5vlt415)" height="277.1953" style="stroke: #A80036; stroke-width: 1.0;" width="10" x="587.5" y="769.5156"/><rect fill="#FFFFFF" filter="url(#fb7x5i5vlt415)" height="335.4609" style="stroke: #A80036; stroke-width: 1.0;" width="10" x="587.5" y="1118.9766"/><rect fill="#FFFFFF" filter="url(#fb7x5i5vlt415)" height="277.1953" style="stroke: #A80036; stroke-width: 1.0;" width="10" x="587.5" y="1526.7031"/><rect fill="#FFFFFF" filter="url(#fb7x5i5vlt415)" height="29.1328" style="stroke: #A80036; stroke-width: 1.0;" width="10" x="830" y="449.1875"/><rect fill="#FFFFFF" filter="url(#fb7x5i5vlt415)" height="29.1328" style="stroke: #A80036; stroke-width: 1.0;" width="10" x="830" y="507.4531"/><rect fill="#FFFFFF" filter="url(#fb7x5i5vlt415)" height="29.1328" style="stroke: #A80036; stroke-width: 1.0;" width="10" x="830" y="856.9141"/><rect fill="#FFFFFF" filter="url(#fb7x5i5vlt415)" height="29.1328" style="stroke: #A80036; stroke-width: 1.0;" width="10" x="830" y="1206.375"/><rect fill="#FFFFFF" filter="url(#fb7x5i5vlt415)" height="29.1328" style="stroke: #A80036; stroke-width: 1.0;" width="10" x="830" y="1264.6406"/><rect fill="#FFFFFF" filter="url(#fb7x5i5vlt415)" height="29.1328" style="stroke: #A80036; stroke-width: 1.0;" width="10" x="830" y="1614.1016"/><rect fill="#FFFFFF" filter="url(#fb7x5i5vlt415)" height="29.1328" style="stroke: #A80036; stroke-width: 1.0;" width="10" x="1103.5" y="390.9219"/><rect fill="#FFFFFF" filter="url(#fb7x5i5vlt415)" height="29.1328" style="stroke: #A80036; stroke-width: 1.0;" width="10" x="1103.5" y="565.7188"/><rect fill="#FFFFFF" filter="url(#fb7x5i5vlt415)" height="29.1328" style="stroke: #A80036; stroke-width: 1.0;" width="10" x="1103.5" y="798.6484"/><rect fill="#FFFFFF" filter="url(#fb7x5i5vlt415)" height="29.1328" style="stroke: #A80036; stroke-width: 1.0;" width="10" x="1103.5" y="915.1797"/><rect fill="#FFFFFF" filter="url(#fb7x5i5vlt415)" height="29.1328" style="stroke: #A80036; stroke-width: 1.0;" width="10" x="1103.5" y="1148.1094"/><rect fill="#FFFFFF" filter="url(#fb7x5i5vlt415)" height="29.1328" style="stroke: #A80036; stroke-width: 1.0;" width="10" x="1103.5" y="1322.9063"/><rect fill="#FFFFFF" filter="url(#fb7x5i5vlt415)" height="29.1328" style="stroke: #A80036; stroke-width: 1.0;" width="10" x="1103.5" y="1555.8359"/><rect fill="#FFFFFF" filter="url(#fb7x5i5vlt415)" height="29.1328" style="stroke: #A80036; stroke-width: 1.0;" width="10" x="1103.5" y="1672.3672"/><rect fill="#FFFFFF" filter="url(#fb7x5i5vlt415)" height="59.2656" style="stroke: #000000; stroke-width: 2.0;" width="357" x="259" y="173.125"/><rect fill="#FFFFFF" filter="url(#fb7x5i5vlt415)" height="59.2656" style="stroke: #000000; stroke-width: 2.0;" width="239.5" x="487" y="609.9844"/><rect fill="#FFFFFF" filter="url(#fb7x5i5vlt415)" height="59.2656" style="stroke: #000000; stroke-width: 2.0;" width="239.5" x="487" y="959.4453"/><rect fill="#FFFFFF" filter="url(#fb7x5i5vlt415)" height="59.2656" style="stroke: #000000; stroke-width: 2.0;" width="239.5" x="487" y="1367.1719"/><rect fill="#FFFFFF" filter="url(#fb7x5i5vlt415)" height="59.2656" style="stroke: #000000; stroke-width: 2.0;" width="239.5" x="487" y="1716.6328"/><line style="stroke: #A80036; stroke-width: 1.0; stroke-dasharray: 5.0,5.0;" x1="133" x2="133" y1="81.5938" y2="1822.0313"/><line style="stroke: #A80036; stroke-width: 1.0; stroke-dasharray: 5.0,5.0;" x1="378" x2="378" y1="81.5938" y2="1822.0313"/><line style="stroke: #A80036; stroke-width: 1.0; stroke-dasharray: 5.0,5.0;" x1="592" x2="592" y1="81.5938" y2="1822.0313"/><line style="stroke: #A80036; stroke-width: 1.0; stroke-dasharray: 5.0,5.0;" x1="835" x2="835" y1="81.5938" y2="1822.0313"/><line style="stroke: #A80036; stroke-width: 1.0; stroke-dasharray: 5.0,5.0;" x1="1108" x2="1108" y1="81.5938" y2="1822.0313"/><rect fill="#FEFECE" filter="url(#fb7x5i5vlt415)" height="30.2969" style="stroke: #A80036; stroke-width: 1.5;" width="247" x="8" y="46.2969"/><text fill="#000000" font-family="sans-serif" font-size="14" lengthAdjust="spacingAndGlyphs" textLength="233" x="15" y="66.292">DynamicPartitionObserverListener</text><rect fill="#FEFECE" filter="url(#fb7x5i5vlt415)" height="30.2969" style="stroke: #A80036; stroke-width: 1.5;" width="247" x="8" y="1821.0313"/><text fill="#000000" font-family="sans-serif" font-size="14" lengthAdjust="spacingAndGlyphs" textLength="233" x="15" y="1841.0264">DynamicPartitionObserverListener</text><rect fill="#FEFECE" filter="url(#fb7x5i5vlt415)" height="30.2969" style="stroke: #A80036; stroke-width: 1.5;" width="214" x="269" y="46.2969"/><text fill="#000000" font-family="sans-serif" font-size="14" lengthAdjust="spacingAndGlyphs" textLength="200" x="276" y="66.292">DynamicPartitionCommander</text><rect fill="#FEFECE" filter="url(#fb7x5i5vlt415)" height="30.2969" style="stroke: #A80036; stroke-width: 1.5;" width="214" x="269" y="1821.0313"/><text fill="#000000" font-family="sans-serif" font-size="14" lengthAdjust="spacingAndGlyphs" textLength="200" x="276" y="1841.0264">DynamicPartitionCommander</text><text fill="#000000" font-family="sans-serif" font-size="14" lengthAdjust="spacingAndGlyphs" textLength="185" x="497" y="78.292">ScheduledExecutorService</text><ellipse cx="592.5" cy="49.2969" fill="#FEFECE" filter="url(#fb7x5i5vlt415)" rx="12" ry="12" style="stroke: #A80036; stroke-width: 2.0;"/><polygon fill="#A80036" points="588.5,37.2969,594.5,32.2969,592.5,37.2969,594.5,42.2969,588.5,37.2969" style="stroke: #A80036; stroke-width: 1.0;"/><text fill="#000000" font-family="sans-serif" font-size="14" lengthAdjust="spacingAndGlyphs" textLength="185" x="497" y="1834.0264">ScheduledExecutorService</text><ellipse cx="592.5" cy="1853.3281" fill="#FEFECE" filter="url(#fb7x5i5vlt415)" rx="12" ry="12" style="stroke: #A80036; stroke-width: 2.0;"/><polygon fill="#A80036" points="588.5,1841.3281,594.5,1836.3281,592.5,1841.3281,594.5,1846.3281,588.5,1841.3281" style="stroke: #A80036; stroke-width: 1.0;"/><rect fill="#FEFECE" filter="url(#fb7x5i5vlt415)" height="30.2969" style="stroke: #A80036; stroke-width: 1.5;" width="270" x="698" y="46.2969"/><text fill="#000000" font-family="sans-serif" font-size="14" lengthAdjust="spacingAndGlyphs" textLength="256" x="705" y="66.292">DynamicPartitionCommanderProvider</text><rect fill="#FEFECE" filter="url(#fb7x5i5vlt415)" height="30.2969" style="stroke: #A80036; stroke-width: 1.5;" width="270" x="698" y="1821.0313"/><text fill="#000000" font-family="sans-serif" font-size="14" lengthAdjust="spacingAndGlyphs" textLength="256" x="705" y="1841.0264">DynamicPartitionCommanderProvider</text><rect fill="#FEFECE" filter="url(#fb7x5i5vlt415)" height="30.2969" style="stroke: #A80036; stroke-width: 1.5;" width="249" x="982" y="46.2969"/><text fill="#000000" font-family="sans-serif" font-size="14" lengthAdjust="spacingAndGlyphs" textLength="235" x="989" y="66.292">RoutingServiceCommandInterface</text><rect fill="#FEFECE" filter="url(#fb7x5i5vlt415)" height="30.2969" style="stroke: #A80036; stroke-width: 1.5;" width="249" x="982" y="1821.0313"/><text fill="#000000" font-family="sans-serif" font-size="14" lengthAdjust="spacingAndGlyphs" textLength="235" x="989" y="1841.0264">RoutingServiceCommandInterface</text><rect fill="#FFFFFF" filter="url(#fb7x5i5vlt415)" height="131.9297" style="stroke: #A80036; stroke-width: 1.0;" width="10" x="373" y="157.5938"/><rect fill="#FFFFFF" filter="url(#fb7x5i5vlt415)" height="335.4609" style="stroke: #A80036; stroke-width: 1.0;" width="10" x="587.5" y="361.7891"/><rect fill="#FFFFFF" filter="url(#fb7x5i5vlt415)" height="277.1953" style="stroke: #A80036; stroke-width: 1.0;" width="10" x="587.5" y="769.5156"/><rect fill="#FFFFFF" filter="url(#fb7x5i5vlt415)" height="335.4609" style="stroke: #A80036; stroke-width: 1.0;" width="10" x="587.5" y="1118.9766"/><rect fill="#FFFFFF" filter="url(#fb7x5i5vlt415)" height="277.1953" style="stroke: #A80036; stroke-width: 1.0;" width="10" x="587.5" y="1526.7031"/><rect fill="#FFFFFF" filter="url(#fb7x5i5vlt415)" height="29.1328" style="stroke: #A80036; stroke-width: 1.0;" width="10" x="830" y="449.1875"/><rect fill="#FFFFFF" filter="url(#fb7x5i5vlt415)" height="29.1328" style="stroke: #A80036; stroke-width: 1.0;" width="10" x="830" y="507.4531"/><rect fill="#FFFFFF" filter="url(#fb7x5i5vlt415)" height="29.1328" style="stroke: #A80036; stroke-width: 1.0;" width="10" x="830" y="856.9141"/><rect fill="#FFFFFF" filter="url(#fb7x5i5vlt415)" height="29.1328" style="stroke: #A80036; stroke-width: 1.0;" width="10" x="830" y="1206.375"/><rect fill="#FFFFFF" filter="url(#fb7x5i5vlt415)" height="29.1328" style="stroke: #A80036; stroke-width: 1.0;" width="10" x="830" y="1264.6406"/><rect fill="#FFFFFF" filter="url(#fb7x5i5vlt415)" height="29.1328" style="stroke: #A80036; stroke-width: 1.0;" width="10" x="830" y="1614.1016"/><rect fill="#FFFFFF" filter="url(#fb7x5i5vlt415)" height="29.1328" style="stroke: #A80036; stroke-width: 1.0;" width="10" x="1103.5" y="390.9219"/><rect fill="#FFFFFF" filter="url(#fb7x5i5vlt415)" height="29.1328" style="stroke: #A80036; stroke-width: 1.0;" width="10" x="1103.5" y="565.7188"/><rect fill="#FFFFFF" filter="url(#fb7x5i5vlt415)" height="29.1328" style="stroke: #A80036; stroke-width: 1.0;" width="10" x="1103.5" y="798.6484"/><rect fill="#FFFFFF" filter="url(#fb7x5i5vlt415)" height="29.1328" style="stroke: #A80036; stroke-width: 1.0;" width="10" x="1103.5" y="915.1797"/><rect fill="#FFFFFF" filter="url(#fb7x5i5vlt415)" height="29.1328" style="stroke: #A80036; stroke-width: 1.0;" width="10" x="1103.5" y="1148.1094"/><rect fill="#FFFFFF" filter="url(#fb7x5i5vlt415)" height="29.1328" style="stroke: #A80036; stroke-width: 1.0;" width="10" x="1103.5" y="1322.9063"/><rect fill="#FFFFFF" filter="url(#fb7x5i5vlt415)" height="29.1328" style="stroke: #A80036; stroke-width: 1.0;" width="10" x="1103.5" y="1555.8359"/><rect fill="#FFFFFF" filter="url(#fb7x5i5vlt415)" height="29.1328" style="stroke: #A80036; stroke-width: 1.0;" width="10" x="1103.5" y="1672.3672"/><polygon fill="#A80036" points="361,153.5938,371,157.5938,361,161.5938,365,157.5938" style="stroke: #A80036; stroke-width: 1.0;"/><line style="stroke: #A80036; stroke-width: 1.0;" x1="133.5" x2="367" y1="157.5938" y2="157.5938"/><text fill="#000000" font-family="sans-serif" font-size="13" lengthAdjust="spacingAndGlyphs" textLength="101" x="140.5" y="107.6606">createSession()</text><text fill="#000000" font-family="sans-serif" font-size="13" lengthAdjust="spacingAndGlyphs" textLength="100" x="140.5" y="122.7935">deleteSession()</text><text fill="#000000" font-family="sans-serif" font-size="13" lengthAdjust="spacingAndGlyphs" textLength="121" x="140.5" y="137.9263">createTopicRoute()</text><text fill="#000000" font-family="sans-serif" font-size="13" lengthAdjust="spacingAndGlyphs" textLength="120" x="140.5" y="153.0591">deleteTopicRoute()</text><rect fill="none" height="59.2656" style="stroke: #000000; stroke-width: 2.0;" width="357" x="259" y="173.125"/><polygon fill="#EEEEEE" points="259,173.125,323,173.125,323,180.125,313,190.125,259,190.125,259,173.125" style="stroke: #000000; stroke-width: 2.0;"/><text fill="#000000" font-family="sans-serif" font-size="13" font-weight="bold" lengthAdjust="spacingAndGlyphs" textLength="19" x="274" y="186.1919">alt</text><text fill="#000000" font-family="sans-serif" font-size="11" font-weight="bold" lengthAdjust="spacingAndGlyphs" textLength="273" x="338" y="185.3354">[activeCommands.containsKey(command)]</text><line style="stroke: #A80036; stroke-width: 1.0;" x1="383" x2="425" y1="211.3906" y2="211.3906"/><line style="stroke: #A80036; stroke-width: 1.0;" x1="425" x2="425" y1="211.3906" y2="224.3906"/><line style="stroke: #A80036; stroke-width: 1.0;" x1="384" x2="425" y1="224.3906" y2="224.3906"/><polygon fill="#A80036" points="394,220.3906,384,224.3906,394,228.3906,390,224.3906" style="stroke: #A80036; stroke-width: 1.0;"/><text fill="#000000" font-family="sans-serif" font-size="13" lengthAdjust="spacingAndGlyphs" textLength="152" x="390" y="206.3247">cancel active command</text><polygon fill="#A80036" points="580.5,256.3906,590.5,260.3906,580.5,264.3906,584.5,260.3906" style="stroke: #A80036; stroke-width: 1.0;"/><line style="stroke: #A80036; stroke-width: 1.0;" x1="383" x2="586.5" y1="260.3906" y2="260.3906"/><text fill="#000000" font-family="sans-serif" font-size="13" lengthAdjust="spacingAndGlyphs" textLength="163" x="390" y="255.4575">scheduleWithFixedDelay()</text><polygon fill="#A80036" points="144.5,285.5234,134.5,289.5234,144.5,293.5234,140.5,289.5234" style="stroke: #A80036; stroke-width: 1.0;"/><line style="stroke: #A80036; stroke-width: 1.0; stroke-dasharray: 2.0,2.0;" x1="138.5" x2="377" y1="289.5234" y2="289.5234"/><text fill="#000000" font-family="sans-serif" font-size="13" lengthAdjust="spacingAndGlyphs" textLength="32" x="150.5" y="284.5903">done</text><rect fill="#EEEEEE" filter="url(#fb7x5i5vlt415)" height="3" style="stroke: #EEEEEE; stroke-width: 1.0;" width="1237" x="3" y="318.2227"/><line style="stroke: #000000; stroke-width: 1.0;" x1="3" x2="1240" y1="318.2227" y2="318.2227"/><line style="stroke: #000000; stroke-width: 1.0;" x1="3" x2="1240" y1="321.2227" y2="321.2227"/><rect fill="#EEEEEE" filter="url(#fb7x5i5vlt415)" height="23.1328" style="stroke: #000000; stroke-width: 2.0;" width="129" x="557" y="307.6563"/><text fill="#000000" font-family="sans-serif" font-size="13" font-weight="bold" lengthAdjust="spacingAndGlyphs" textLength="110" x="563" y="323.7231">Create Session</text><polygon fill="#A80036" points="575.5,357.7891,585.5,361.7891,575.5,365.7891,579.5,361.7891" style="stroke: #A80036; stroke-width: 1.0;"/><line style="stroke: #A80036; stroke-width: 1.0;" x1="3" x2="581.5" y1="361.7891" y2="361.7891"/><text fill="#000000" font-family="sans-serif" font-size="13" lengthAdjust="spacingAndGlyphs" textLength="31" x="10" y="356.856">run()</text><polygon fill="#A80036" points="1091.5,386.9219,1101.5,390.9219,1091.5,394.9219,1095.5,390.9219" style="stroke: #A80036; stroke-width: 1.0;"/><line style="stroke: #A80036; stroke-width: 1.0;" x1="597.5" x2="1097.5" y1="390.9219" y2="390.9219"/><text fill="#000000" font-family="sans-serif" font-size="13" lengthAdjust="spacingAndGlyphs" textLength="170" x="604.5" y="385.9888">createCommandRequest()</text><polygon fill="#A80036" points="608.5,416.0547,598.5,420.0547,608.5,424.0547,604.5,420.0547" style="stroke: #A80036; stroke-width: 1.0;"/><line style="stroke: #A80036; stroke-width: 1.0; stroke-dasharray: 2.0,2.0;" x1="602.5" x2="1107.5" y1="420.0547" y2="420.0547"/><text fill="#000000" font-family="sans-serif" font-size="13" lengthAdjust="spacingAndGlyphs" textLength="117" x="614.5" y="415.1216">commandRequest</text><polygon fill="#A80036" points="818,445.1875,828,449.1875,818,453.1875,822,449.1875" style="stroke: #A80036; stroke-width: 1.0;"/><line style="stroke: #A80036; stroke-width: 1.0;" x1="597.5" x2="824" y1="449.1875" y2="449.1875"/><text fill="#000000" font-family="sans-serif" font-size="13" lengthAdjust="spacingAndGlyphs" textLength="123" x="604.5" y="444.2544">getSessionParent()</text><polygon fill="#A80036" points="608.5,474.3203,598.5,478.3203,608.5,482.3203,604.5,478.3203" style="stroke: #A80036; stroke-width: 1.0;"/><line style="stroke: #A80036; stroke-width: 1.0; stroke-dasharray: 2.0,2.0;" x1="602.5" x2="834" y1="478.3203" y2="478.3203"/><text fill="#000000" font-family="sans-serif" font-size="13" lengthAdjust="spacingAndGlyphs" textLength="90" x="614.5" y="473.3872">sessionParent</text><polygon fill="#A80036" points="818,503.4531,828,507.4531,818,511.4531,822,507.4531" style="stroke: #A80036; stroke-width: 1.0;"/><line style="stroke: #A80036; stroke-width: 1.0;" x1="597.5" x2="824" y1="507.4531" y2="507.4531"/><text fill="#000000" font-family="sans-serif" font-size="13" lengthAdjust="spacingAndGlyphs" textLength="166" x="604.5" y="502.52">getSessionConfiguration()</text><polygon fill="#A80036" points="608.5,532.5859,598.5,536.5859,608.5,540.5859,604.5,536.5859" style="stroke: #A80036; stroke-width: 1.0;"/><line style="stroke: #A80036; stroke-width: 1.0; stroke-dasharray: 2.0,2.0;" x1="602.5" x2="834" y1="536.5859" y2="536.5859"/><text fill="#000000" font-family="sans-serif" font-size="13" lengthAdjust="spacingAndGlyphs" textLength="133" x="614.5" y="531.6528">sessionConfiguration</text><polygon fill="#A80036" points="1091.5,561.7188,1101.5,565.7188,1091.5,569.7188,1095.5,565.7188" style="stroke: #A80036; stroke-width: 1.0;"/><line style="stroke: #A80036; stroke-width: 1.0;" x1="597.5" x2="1097.5" y1="565.7188" y2="565.7188"/><text fill="#000000" font-family="sans-serif" font-size="13" lengthAdjust="spacingAndGlyphs" textLength="93" x="604.5" y="560.7856">sendRequest()</text><polygon fill="#A80036" points="608.5,590.8516,598.5,594.8516,608.5,598.8516,604.5,594.8516" style="stroke: #A80036; stroke-width: 1.0;"/><line style="stroke: #A80036; stroke-width: 1.0; stroke-dasharray: 2.0,2.0;" x1="602.5" x2="1107.5" y1="594.8516" y2="594.8516"/><text fill="#000000" font-family="sans-serif" font-size="13" lengthAdjust="spacingAndGlyphs" textLength="127" x="614.5" y="589.9185">commandResponse</text><rect fill="none" height="59.2656" style="stroke: #000000; stroke-width: 2.0;" width="239.5" x="487" y="609.9844"/><polygon fill="#EEEEEE" points="487,609.9844,557,609.9844,557,616.9844,547,626.9844,487,626.9844,487,609.9844" style="stroke: #000000; stroke-width: 2.0;"/><text fill="#000000" font-family="sans-serif" font-size="13" font-weight="bold" lengthAdjust="spacingAndGlyphs" textLength="25" x="502" y="623.0513">opt</text><text fill="#000000" font-family="sans-serif" font-size="11" font-weight="bold" lengthAdjust="spacingAndGlyphs" textLength="119" x="572" y="622.1948">[checkResponse()]</text><line style="stroke: #A80036; stroke-width: 1.0;" x1="597.5" x2="639.5" y1="648.25" y2="648.25"/><line style="stroke: #A80036; stroke-width: 1.0;" x1="639.5" x2="639.5" y1="648.25" y2="661.25"/><line style="stroke: #A80036; stroke-width: 1.0;" x1="598.5" x2="639.5" y1="661.25" y2="661.25"/><polygon fill="#A80036" points="608.5,657.25,598.5,661.25,608.5,665.25,604.5,661.25" style="stroke: #A80036; stroke-width: 1.0;"/><text fill="#000000" font-family="sans-serif" font-size="13" lengthAdjust="spacingAndGlyphs" textLength="110" x="604.5" y="643.1841">cancel command</text><polygon fill="#A80036" points="14,693.25,4,697.25,14,701.25,10,697.25" style="stroke: #A80036; stroke-width: 1.0;"/><line style="stroke: #A80036; stroke-width: 1.0; stroke-dasharray: 2.0,2.0;" x1="8" x2="591.5" y1="697.25" y2="697.25"/><text fill="#000000" font-family="sans-serif" font-size="13" lengthAdjust="spacingAndGlyphs" textLength="32" x="20" y="692.3169">done</text><rect fill="#EEEEEE" filter="url(#fb7x5i5vlt415)" height="3" style="stroke: #EEEEEE; stroke-width: 1.0;" width="1237" x="3" y="725.9492"/><line style="stroke: #000000; stroke-width: 1.0;" x1="3" x2="1240" y1="725.9492" y2="725.9492"/><line style="stroke: #000000; stroke-width: 1.0;" x1="3" x2="1240" y1="728.9492" y2="728.9492"/><rect fill="#EEEEEE" filter="url(#fb7x5i5vlt415)" height="23.1328" style="stroke: #000000; stroke-width: 2.0;" width="128" x="557.5" y="715.3828"/><text fill="#000000" font-family="sans-serif" font-size="13" font-weight="bold" lengthAdjust="spacingAndGlyphs" textLength="109" x="563.5" y="731.4497">Delete Session</text><polygon fill="#A80036" points="575.5,765.5156,585.5,769.5156,575.5,773.5156,579.5,769.5156" style="stroke: #A80036; stroke-width: 1.0;"/><line style="stroke: #A80036; stroke-width: 1.0;" x1="3" x2="581.5" y1="769.5156" y2="769.5156"/><text fill="#000000" font-family="sans-serif" font-size="13" lengthAdjust="spacingAndGlyphs" textLength="31" x="10" y="764.5825">run()</text><polygon fill="#A80036" points="1091.5,794.6484,1101.5,798.6484,1091.5,802.6484,1095.5,798.6484" style="stroke: #A80036; stroke-width: 1.0;"/><line style="stroke: #A80036; stroke-width: 1.0;" x1="597.5" x2="1097.5" y1="798.6484" y2="798.6484"/><text fill="#000000" font-family="sans-serif" font-size="13" lengthAdjust="spacingAndGlyphs" textLength="170" x="604.5" y="793.7153">createCommandRequest()</text><polygon fill="#A80036" points="608.5,823.7813,598.5,827.7813,608.5,831.7813,604.5,827.7813" style="stroke: #A80036; stroke-width: 1.0;"/><line style="stroke: #A80036; stroke-width: 1.0; stroke-dasharray: 2.0,2.0;" x1="602.5" x2="1107.5" y1="827.7813" y2="827.7813"/><text fill="#000000" font-family="sans-serif" font-size="13" lengthAdjust="spacingAndGlyphs" textLength="117" x="614.5" y="822.8481">commandRequest</text><polygon fill="#A80036" points="818,852.9141,828,856.9141,818,860.9141,822,856.9141" style="stroke: #A80036; stroke-width: 1.0;"/><line style="stroke: #A80036; stroke-width: 1.0;" x1="597.5" x2="824" y1="856.9141" y2="856.9141"/><text fill="#000000" font-family="sans-serif" font-size="13" lengthAdjust="spacingAndGlyphs" textLength="156" x="604.5" y="851.981">getSessionEntityName()</text><polygon fill="#A80036" points="608.5,882.0469,598.5,886.0469,608.5,890.0469,604.5,886.0469" style="stroke: #A80036; stroke-width: 1.0;"/><line style="stroke: #A80036; stroke-width: 1.0; stroke-dasharray: 2.0,2.0;" x1="602.5" x2="834" y1="886.0469" y2="886.0469"/><text fill="#000000" font-family="sans-serif" font-size="13" lengthAdjust="spacingAndGlyphs" textLength="123" x="614.5" y="881.1138">sessionEntityName</text><polygon fill="#A80036" points="1091.5,911.1797,1101.5,915.1797,1091.5,919.1797,1095.5,915.1797" style="stroke: #A80036; stroke-width: 1.0;"/><line style="stroke: #A80036; stroke-width: 1.0;" x1="597.5" x2="1097.5" y1="915.1797" y2="915.1797"/><text fill="#000000" font-family="sans-serif" font-size="13" lengthAdjust="spacingAndGlyphs" textLength="93" x="604.5" y="910.2466">sendRequest()</text><polygon fill="#A80036" points="608.5,940.3125,598.5,944.3125,608.5,948.3125,604.5,944.3125" style="stroke: #A80036; stroke-width: 1.0;"/><line style="stroke: #A80036; stroke-width: 1.0; stroke-dasharray: 2.0,2.0;" x1="602.5" x2="1107.5" y1="944.3125" y2="944.3125"/><text fill="#000000" font-family="sans-serif" font-size="13" lengthAdjust="spacingAndGlyphs" textLength="127" x="614.5" y="939.3794">commandResponse</text><rect fill="none" height="59.2656" style="stroke: #000000; stroke-width: 2.0;" width="239.5" x="487" y="959.4453"/><polygon fill="#EEEEEE" points="487,959.4453,557,959.4453,557,966.4453,547,976.4453,487,976.4453,487,959.4453" style="stroke: #000000; stroke-width: 2.0;"/><text fill="#000000" font-family="sans-serif" font-size="13" font-weight="bold" lengthAdjust="spacingAndGlyphs" textLength="25" x="502" y="972.5122">opt</text><text fill="#000000" font-family="sans-serif" font-size="11" font-weight="bold" lengthAdjust="spacingAndGlyphs" textLength="119" x="572" y="971.6558">[checkResponse()]</text><line style="stroke: #A80036; stroke-width: 1.0;" x1="597.5" x2="639.5" y1="997.7109" y2="997.7109"/><line style="stroke: #A80036; stroke-width: 1.0;" x1="639.5" x2="639.5" y1="997.7109" y2="1010.7109"/><line style="stroke: #A80036; stroke-width: 1.0;" x1="598.5" x2="639.5" y1="1010.7109" y2="1010.7109"/><polygon fill="#A80036" points="608.5,1006.7109,598.5,1010.7109,608.5,1014.7109,604.5,1010.7109" style="stroke: #A80036; stroke-width: 1.0;"/><text fill="#000000" font-family="sans-serif" font-size="13" lengthAdjust="spacingAndGlyphs" textLength="110" x="604.5" y="992.645">cancel command</text><polygon fill="#A80036" points="14,1042.7109,4,1046.7109,14,1050.7109,10,1046.7109" style="stroke: #A80036; stroke-width: 1.0;"/><line style="stroke: #A80036; stroke-width: 1.0; stroke-dasharray: 2.0,2.0;" x1="8" x2="591.5" y1="1046.7109" y2="1046.7109"/><text fill="#000000" font-family="sans-serif" font-size="13" lengthAdjust="spacingAndGlyphs" textLength="32" x="20" y="1041.7778">done</text><rect fill="#EEEEEE" filter="url(#fb7x5i5vlt415)" height="3" style="stroke: #EEEEEE; stroke-width: 1.0;" width="1237" x="3" y="1075.4102"/><line style="stroke: #000000; stroke-width: 1.0;" x1="3" x2="1240" y1="1075.4102" y2="1075.4102"/><line style="stroke: #000000; stroke-width: 1.0;" x1="3" x2="1240" y1="1078.4102" y2="1078.4102"/><rect fill="#EEEEEE" filter="url(#fb7x5i5vlt415)" height="23.1328" style="stroke: #000000; stroke-width: 2.0;" width="160" x="541.5" y="1064.8438"/><text fill="#000000" font-family="sans-serif" font-size="13" font-weight="bold" lengthAdjust="spacingAndGlyphs" textLength="141" x="547.5" y="1080.9106">Create Topic Route</text><polygon fill="#A80036" points="575.5,1114.9766,585.5,1118.9766,575.5,1122.9766,579.5,1118.9766" style="stroke: #A80036; stroke-width: 1.0;"/><line style="stroke: #A80036; stroke-width: 1.0;" x1="3" x2="581.5" y1="1118.9766" y2="1118.9766"/><text fill="#000000" font-family="sans-serif" font-size="13" lengthAdjust="spacingAndGlyphs" textLength="31" x="10" y="1114.0435">run()</text><polygon fill="#A80036" points="1091.5,1144.1094,1101.5,1148.1094,1091.5,1152.1094,1095.5,1148.1094" style="stroke: #A80036; stroke-width: 1.0;"/><line style="stroke: #A80036; stroke-width: 1.0;" x1="597.5" x2="1097.5" y1="1148.1094" y2="1148.1094"/><text fill="#000000" font-family="sans-serif" font-size="13" lengthAdjust="spacingAndGlyphs" textLength="170" x="604.5" y="1143.1763">createCommandRequest()</text><polygon fill="#A80036" points="608.5,1173.2422,598.5,1177.2422,608.5,1181.2422,604.5,1177.2422" style="stroke: #A80036; stroke-width: 1.0;"/><line style="stroke: #A80036; stroke-width: 1.0; stroke-dasharray: 2.0,2.0;" x1="602.5" x2="1107.5" y1="1177.2422" y2="1177.2422"/><text fill="#000000" font-family="sans-serif" font-size="13" lengthAdjust="spacingAndGlyphs" textLength="117" x="614.5" y="1172.3091">commandRequest</text><polygon fill="#A80036" points="818,1202.375,828,1206.375,818,1210.375,822,1206.375" style="stroke: #A80036; stroke-width: 1.0;"/><line style="stroke: #A80036; stroke-width: 1.0;" x1="597.5" x2="824" y1="1206.375" y2="1206.375"/><text fill="#000000" font-family="sans-serif" font-size="13" lengthAdjust="spacingAndGlyphs" textLength="156" x="604.5" y="1201.4419">getSessionEntityName()</text><polygon fill="#A80036" points="608.5,1231.5078,598.5,1235.5078,608.5,1239.5078,604.5,1235.5078" style="stroke: #A80036; stroke-width: 1.0;"/><line style="stroke: #A80036; stroke-width: 1.0; stroke-dasharray: 2.0,2.0;" x1="602.5" x2="834" y1="1235.5078" y2="1235.5078"/><text fill="#000000" font-family="sans-serif" font-size="13" lengthAdjust="spacingAndGlyphs" textLength="123" x="614.5" y="1230.5747">sessionEntityName</text><polygon fill="#A80036" points="818,1260.6406,828,1264.6406,818,1268.6406,822,1264.6406" style="stroke: #A80036; stroke-width: 1.0;"/><line style="stroke: #A80036; stroke-width: 1.0;" x1="597.5" x2="824" y1="1264.6406" y2="1264.6406"/><text fill="#000000" font-family="sans-serif" font-size="13" lengthAdjust="spacingAndGlyphs" textLength="186" x="604.5" y="1259.7075">getTopicRouteConfiguration()</text><polygon fill="#A80036" points="608.5,1289.7734,598.5,1293.7734,608.5,1297.7734,604.5,1293.7734" style="stroke: #A80036; stroke-width: 1.0;"/><line style="stroke: #A80036; stroke-width: 1.0; stroke-dasharray: 2.0,2.0;" x1="602.5" x2="834" y1="1293.7734" y2="1293.7734"/><text fill="#000000" font-family="sans-serif" font-size="13" lengthAdjust="spacingAndGlyphs" textLength="153" x="614.5" y="1288.8403">topicRouteConfiguration</text><polygon fill="#A80036" points="1091.5,1318.9063,1101.5,1322.9063,1091.5,1326.9063,1095.5,1322.9063" style="stroke: #A80036; stroke-width: 1.0;"/><line style="stroke: #A80036; stroke-width: 1.0;" x1="597.5" x2="1097.5" y1="1322.9063" y2="1322.9063"/><text fill="#000000" font-family="sans-serif" font-size="13" lengthAdjust="spacingAndGlyphs" textLength="93" x="604.5" y="1317.9731">sendRequest()</text><polygon fill="#A80036" points="608.5,1348.0391,598.5,1352.0391,608.5,1356.0391,604.5,1352.0391" style="stroke: #A80036; stroke-width: 1.0;"/><line style="stroke: #A80036; stroke-width: 1.0; stroke-dasharray: 2.0,2.0;" x1="602.5" x2="1107.5" y1="1352.0391" y2="1352.0391"/><text fill="#000000" font-family="sans-serif" font-size="13" lengthAdjust="spacingAndGlyphs" textLength="127" x="614.5" y="1347.106">commandResponse</text><rect fill="none" height="59.2656" style="stroke: #000000; stroke-width: 2.0;" width="239.5" x="487" y="1367.1719"/><polygon fill="#EEEEEE" points="487,1367.1719,557,1367.1719,557,1374.1719,547,1384.1719,487,1384.1719,487,1367.1719" style="stroke: #000000; stroke-width: 2.0;"/><text fill="#000000" font-family="sans-serif" font-size="13" font-weight="bold" lengthAdjust="spacingAndGlyphs" textLength="25" x="502" y="1380.2388">opt</text><text fill="#000000" font-family="sans-serif" font-size="11" font-weight="bold" lengthAdjust="spacingAndGlyphs" textLength="119" x="572" y="1379.3823">[checkResponse()]</text><line style="stroke: #A80036; stroke-width: 1.0;" x1="597.5" x2="639.5" y1="1405.4375" y2="1405.4375"/><line style="stroke: #A80036; stroke-width: 1.0;" x1="639.5" x2="639.5" y1="1405.4375" y2="1418.4375"/><line style="stroke: #A80036; stroke-width: 1.0;" x1="598.5" x2="639.5" y1="1418.4375" y2="1418.4375"/><polygon fill="#A80036" points="608.5,1414.4375,598.5,1418.4375,608.5,1422.4375,604.5,1418.4375" style="stroke: #A80036; stroke-width: 1.0;"/><text fill="#000000" font-family="sans-serif" font-size="13" lengthAdjust="spacingAndGlyphs" textLength="110" x="604.5" y="1400.3716">cancel command</text><polygon fill="#A80036" points="14,1450.4375,4,1454.4375,14,1458.4375,10,1454.4375" style="stroke: #A80036; stroke-width: 1.0;"/><line style="stroke: #A80036; stroke-width: 1.0; stroke-dasharray: 2.0,2.0;" x1="8" x2="591.5" y1="1454.4375" y2="1454.4375"/><text fill="#000000" font-family="sans-serif" font-size="13" lengthAdjust="spacingAndGlyphs" textLength="32" x="20" y="1449.5044">done</text><rect fill="#EEEEEE" filter="url(#fb7x5i5vlt415)" height="3" style="stroke: #EEEEEE; stroke-width: 1.0;" width="1237" x="3" y="1483.1367"/><line style="stroke: #000000; stroke-width: 1.0;" x1="3" x2="1240" y1="1483.1367" y2="1483.1367"/><line style="stroke: #000000; stroke-width: 1.0;" x1="3" x2="1240" y1="1486.1367" y2="1486.1367"/><rect fill="#EEEEEE" filter="url(#fb7x5i5vlt415)" height="23.1328" style="stroke: #000000; stroke-width: 2.0;" width="159" x="542" y="1472.5703"/><text fill="#000000" font-family="sans-serif" font-size="13" font-weight="bold" lengthAdjust="spacingAndGlyphs" textLength="140" x="548" y="1488.6372">Delete Topic Route</text><polygon fill="#A80036" points="575.5,1522.7031,585.5,1526.7031,575.5,1530.7031,579.5,1526.7031" style="stroke: #A80036; stroke-width: 1.0;"/><line style="stroke: #A80036; stroke-width: 1.0;" x1="3" x2="581.5" y1="1526.7031" y2="1526.7031"/><text fill="#000000" font-family="sans-serif" font-size="13" lengthAdjust="spacingAndGlyphs" textLength="31" x="10" y="1521.77">run()</text><polygon fill="#A80036" points="1091.5,1551.8359,1101.5,1555.8359,1091.5,1559.8359,1095.5,1555.8359" style="stroke: #A80036; stroke-width: 1.0;"/><line style="stroke: #A80036; stroke-width: 1.0;" x1="597.5" x2="1097.5" y1="1555.8359" y2="1555.8359"/><text fill="#000000" font-family="sans-serif" font-size="13" lengthAdjust="spacingAndGlyphs" textLength="170" x="604.5" y="1550.9028">createCommandRequest()</text><polygon fill="#A80036" points="608.5,1580.9688,598.5,1584.9688,608.5,1588.9688,604.5,1584.9688" style="stroke: #A80036; stroke-width: 1.0;"/><line style="stroke: #A80036; stroke-width: 1.0; stroke-dasharray: 2.0,2.0;" x1="602.5" x2="1107.5" y1="1584.9688" y2="1584.9688"/><text fill="#000000" font-family="sans-serif" font-size="13" lengthAdjust="spacingAndGlyphs" textLength="117" x="614.5" y="1580.0356">commandRequest</text><polygon fill="#A80036" points="818,1610.1016,828,1614.1016,818,1618.1016,822,1614.1016" style="stroke: #A80036; stroke-width: 1.0;"/><line style="stroke: #A80036; stroke-width: 1.0;" x1="597.5" x2="824" y1="1614.1016" y2="1614.1016"/><text fill="#000000" font-family="sans-serif" font-size="13" lengthAdjust="spacingAndGlyphs" textLength="176" x="604.5" y="1609.1685">getTopicRouteEntityName()</text><polygon fill="#A80036" points="608.5,1639.2344,598.5,1643.2344,608.5,1647.2344,604.5,1643.2344" style="stroke: #A80036; stroke-width: 1.0;"/><line style="stroke: #A80036; stroke-width: 1.0; stroke-dasharray: 2.0,2.0;" x1="602.5" x2="834" y1="1643.2344" y2="1643.2344"/><text fill="#000000" font-family="sans-serif" font-size="13" lengthAdjust="spacingAndGlyphs" textLength="143" x="614.5" y="1638.3013">topicRouteEntityName</text><polygon fill="#A80036" points="1091.5,1668.3672,1101.5,1672.3672,1091.5,1676.3672,1095.5,1672.3672" style="stroke: #A80036; stroke-width: 1.0;"/><line style="stroke: #A80036; stroke-width: 1.0;" x1="597.5" x2="1097.5" y1="1672.3672" y2="1672.3672"/><text fill="#000000" font-family="sans-serif" font-size="13" lengthAdjust="spacingAndGlyphs" textLength="93" x="604.5" y="1667.4341">sendRequest()</text><polygon fill="#A80036" points="608.5,1697.5,598.5,1701.5,608.5,1705.5,604.5,1701.5" style="stroke: #A80036; stroke-width: 1.0;"/><line style="stroke: #A80036; stroke-width: 1.0; stroke-dasharray: 2.0,2.0;" x1="602.5" x2="1107.5" y1="1701.5" y2="1701.5"/><text fill="#000000" font-family="sans-serif" font-size="13" lengthAdjust="spacingAndGlyphs" textLength="127" x="614.5" y="1696.5669">commandResponse</text><rect fill="none" height="59.2656" style="stroke: #000000; stroke-width: 2.0;" width="239.5" x="487" y="1716.6328"/><polygon fill="#EEEEEE" points="487,1716.6328,557,1716.6328,557,1723.6328,547,1733.6328,487,1733.6328,487,1716.6328" style="stroke: #000000; stroke-width: 2.0;"/><text fill="#000000" font-family="sans-serif" font-size="13" font-weight="bold" lengthAdjust="spacingAndGlyphs" textLength="25" x="502" y="1729.6997">opt</text><text fill="#000000" font-family="sans-serif" font-size="11" font-weight="bold" lengthAdjust="spacingAndGlyphs" textLength="119" x="572" y="1728.8433">[checkResponse()]</text><line style="stroke: #A80036; stroke-width: 1.0;" x1="597.5" x2="639.5" y1="1754.8984" y2="1754.8984"/><line style="stroke: #A80036; stroke-width: 1.0;" x1="639.5" x2="639.5" y1="1754.8984" y2="1767.8984"/><line style="stroke: #A80036; stroke-width: 1.0;" x1="598.5" x2="639.5" y1="1767.8984" y2="1767.8984"/><polygon fill="#A80036" points="608.5,1763.8984,598.5,1767.8984,608.5,1771.8984,604.5,1767.8984" style="stroke: #A80036; stroke-width: 1.0;"/><text fill="#000000" font-family="sans-serif" font-size="13" lengthAdjust="spacingAndGlyphs" textLength="110" x="604.5" y="1749.8325">cancel command</text><polygon fill="#A80036" points="14,1799.8984,4,1803.8984,14,1807.8984,10,1803.8984" style="stroke: #A80036; stroke-width: 1.0;"/><line style="stroke: #A80036; stroke-width: 1.0; stroke-dasharray: 2.0,2.0;" x1="8" x2="591.5" y1="1803.8984" y2="1803.8984"/><text fill="#000000" font-family="sans-serif" font-size="13" lengthAdjust="spacingAndGlyphs" textLength="32" x="20" y="1798.9653">done</text><!--
@startuml
title Dynamic Partition Commander : Create Session

participant DynamicPartitionObserverListener
participant DynamicPartitionCommander
control ScheduledExecutorService
participant DynamicPartitionCommanderProvider
participant RoutingServiceCommandInterface

DynamicPartitionObserverListener -> DynamicPartitionCommander: createSession()\ndeleteSession()\ncreateTopicRoute()\ndeleteTopicRoute()
activate DynamicPartitionCommander
  alt activeCommands.containsKey(command)
    DynamicPartitionCommander -> DynamicPartitionCommander: cancel active command
  end
  DynamicPartitionCommander -> ScheduledExecutorService: scheduleWithFixedDelay()
  DynamicPartitionCommander - -> DynamicPartitionObserverListener: done
deactivate DynamicPartitionCommander

== Create Session ==

[-> ScheduledExecutorService: run()
activate ScheduledExecutorService
  ScheduledExecutorService -> RoutingServiceCommandInterface: createCommandRequest()
  activate RoutingServiceCommandInterface
    RoutingServiceCommandInterface - -> ScheduledExecutorService: commandRequest
  deactivate RoutingServiceCommandInterface

  ScheduledExecutorService -> DynamicPartitionCommanderProvider: getSessionParent()
  activate DynamicPartitionCommanderProvider
    DynamicPartitionCommanderProvider - -> ScheduledExecutorService: sessionParent
  deactivate DynamicPartitionCommanderProvider

  ScheduledExecutorService -> DynamicPartitionCommanderProvider: getSessionConfiguration()
  activate DynamicPartitionCommanderProvider
    DynamicPartitionCommanderProvider - -> ScheduledExecutorService: sessionConfiguration
  deactivate DynamicPartitionCommanderProvider

  ScheduledExecutorService -> RoutingServiceCommandInterface: sendRequest()
  activate RoutingServiceCommandInterface
    RoutingServiceCommandInterface - -> ScheduledExecutorService: commandResponse
  deactivate RoutingServiceCommandInterface

  opt checkResponse()
      ScheduledExecutorService -> ScheduledExecutorService: cancel command
  end

  [<- - ScheduledExecutorService: done
deactivate ScheduledExecutorService

== Delete Session ==

[-> ScheduledExecutorService: run()
activate ScheduledExecutorService
  ScheduledExecutorService -> RoutingServiceCommandInterface: createCommandRequest()
  activate RoutingServiceCommandInterface
    RoutingServiceCommandInterface - -> ScheduledExecutorService: commandRequest
  deactivate RoutingServiceCommandInterface

  ScheduledExecutorService -> DynamicPartitionCommanderProvider: getSessionEntityName()
  activate DynamicPartitionCommanderProvider
    DynamicPartitionCommanderProvider - -> ScheduledExecutorService: sessionEntityName
  deactivate DynamicPartitionCommanderProvider

  ScheduledExecutorService -> RoutingServiceCommandInterface: sendRequest()
  activate RoutingServiceCommandInterface
    RoutingServiceCommandInterface - -> ScheduledExecutorService: commandResponse
  deactivate RoutingServiceCommandInterface

  opt checkResponse()
      ScheduledExecutorService -> ScheduledExecutorService: cancel command
  end

  [<- - ScheduledExecutorService: done
deactivate ScheduledExecutorService

== Create Topic Route ==

[-> ScheduledExecutorService: run()
activate ScheduledExecutorService
  ScheduledExecutorService -> RoutingServiceCommandInterface: createCommandRequest()
  activate RoutingServiceCommandInterface
    RoutingServiceCommandInterface - -> ScheduledExecutorService: commandRequest
  deactivate RoutingServiceCommandInterface

  ScheduledExecutorService -> DynamicPartitionCommanderProvider: getSessionEntityName()
  activate DynamicPartitionCommanderProvider
    DynamicPartitionCommanderProvider - -> ScheduledExecutorService: sessionEntityName
  deactivate DynamicPartitionCommanderProvider

  ScheduledExecutorService -> DynamicPartitionCommanderProvider: getTopicRouteConfiguration()
  activate DynamicPartitionCommanderProvider
    DynamicPartitionCommanderProvider - -> ScheduledExecutorService: topicRouteConfiguration
  deactivate DynamicPartitionCommanderProvider

  ScheduledExecutorService -> RoutingServiceCommandInterface: sendRequest()
  activate RoutingServiceCommandInterface
    RoutingServiceCommandInterface - -> ScheduledExecutorService: commandResponse
  deactivate RoutingServiceCommandInterface

  opt checkResponse()
      ScheduledExecutorService -> ScheduledExecutorService: cancel command
  end

  [<- - ScheduledExecutorService: done
deactivate ScheduledExecutorService

== Delete Topic Route ==

[-> ScheduledExecutorService: run()
activate ScheduledExecutorService
  ScheduledExecutorService -> RoutingServiceCommandInterface: createCommandRequest()
  activate RoutingServiceCommandInterface
    RoutingServiceCommandInterface - -> ScheduledExecutorService: commandRequest
  deactivate RoutingServiceCommandInterface

  ScheduledExecutorService -> DynamicPartitionCommanderProvider: getTopicRouteEntityName()
  activate DynamicPartitionCommanderProvider
    DynamicPartitionCommanderProvider - -> ScheduledExecutorService: topicRouteEntityName
  deactivate DynamicPartitionCommanderProvider

  ScheduledExecutorService -> RoutingServiceCommandInterface: sendRequest()
  activate RoutingServiceCommandInterface
    RoutingServiceCommandInterface - -> ScheduledExecutorService: commandResponse
  deactivate RoutingServiceCommandInterface

  opt checkResponse()
      ScheduledExecutorService -> ScheduledExecutorService: cancel command
  end

  [<- - ScheduledExecutorService: done
deactivate ScheduledExecutorService

@enduml

PlantUML version 1.2017.15(Mon Jul 03 18:45:34 CEST 2017)
(GPL source distribution)
Java Runtime: OpenJDK Runtime Environment
JVM: OpenJDK 64-Bit Server VM
Java Version: 1.8.0_152-release-1024-b8
Operating System: Linux
OS Version: 3.10.0-693.11.1.el7.x86_64
Default Encoding: UTF-8
Language: en
Country: US
--></g></svg>